<?xml version="1.0" standalone="no"?>
<!DOCTYPE svg PUBLIC "-//W3C//DTD SVG 20010904//EN"
 "http://www.w3.org/TR/2001/REC-SVG-20010904/DTD/svg10.dtd">
<svg version="1.0" xmlns="http://www.w3.org/2000/svg"
 width="225.000000pt" height="225.000000pt" viewBox="0 0 225.000000 225.000000"
 preserveAspectRatio="xMidYMid meet">

<g transform="translate(0.000000,225.000000) scale(0.100000,-0.100000)"
fill="#000000" stroke="none">
<path d="M975 2239 c-94 -12 -231 -52 -322 -94 -291 -135 -532 -420 -612 -728
-117 -447 46 -916 414 -1190 456 -340 1098 -283 1487 131 142 151 226 310 280
532 27 110 29 346 4 458 -54 243 -153 420 -328 588 -250 239 -575 346 -923
303z m417 -68 c412 -112 714 -437 793 -854 18 -97 19 -276 1 -377 -70 -386
-348 -709 -716 -833 -132 -44 -187 -52 -350 -51 -128 0 -170 4 -244 23 -155
40 -286 102 -401 190 -408 311 -542 876 -315 1332 147 297 419 509 742 579
126 27 373 22 490 -9z"/>
<path d="M926 2165 c-434 -90 -759 -417 -841 -848 -19 -102 -19 -283 1 -387
60 -320 273 -604 559 -747 360 -181 797 -143 1116 97 210 158 355 393 405 657
24 131 15 347 -20 468 -55 187 -151 348 -284 477 -133 129 -304 226 -472 269
-111 28 -361 35 -464 14z m462 -39 c297 -82 535 -278 667 -550 66 -135 96
-261 100 -421 l3 -130 -8 125 c-4 69 -17 165 -29 214 -89 371 -382 664 -757
758 -127 32 -351 32 -477 0 -189 -47 -334 -128 -475 -266 -139 -135 -227 -285
-279 -476 -23 -83 -26 -115 -27 -250 0 -114 5 -173 17 -224 10 -38 15 -71 13
-73 -2 -3 -13 31 -23 74 -14 59 -18 115 -17 228 1 129 5 164 28 249 109 405
423 689 845 767 25 4 109 6 186 4 110 -3 160 -9 233 -29z m-206 -539 c7 -7 30
-13 50 -13 71 0 103 -63 52 -103 -26 -21 -27 -23 -21 -109 3 -48 15 -131 27
-185 12 -54 21 -100 19 -101 -2 -2 -67 -6 -144 -10 -77 -4 -160 -11 -185 -16
-83 -17 -77 -28 -83 143 -6 175 -11 197 -41 197 -33 0 -66 28 -66 56 0 32 42
74 74 74 15 0 30 8 36 20 7 14 21 20 44 20 18 0 48 7 66 17 26 13 39 14 61 6
22 -9 31 -8 40 3 14 18 53 18 71 1z m-124 -611 l-3 -55 21 20 c14 13 32 19 50
17 24 -2 30 -8 32 -35 3 -31 3 -32 -78 -91 -8 -6 24 -22 46 -22 25 0 57 32 61
63 5 34 32 67 53 67 30 0 26 -51 -6 -89 -22 -27 -24 -32 -9 -37 9 -4 24 1 35
11 11 10 23 15 28 11 10 -10 -36 -46 -59 -46 -10 0 -24 9 -31 19 -11 18 -12
18 -28 -1 -22 -27 -65 -26 -96 2 l-24 23 0 -21 c0 -12 -4 -22 -10 -22 -5 0
-10 9 -10 21 0 19 -1 19 -16 5 -17 -18 -54 -22 -54 -5 0 5 -10 3 -22 -5 -30
-22 -55 -20 -68 4 -10 19 -11 19 -30 0 -11 -11 -29 -20 -40 -20 -29 0 -60 36
-60 69 0 38 40 87 63 78 18 -7 24 -57 7 -57 -5 0 -10 9 -10 20 0 23 -10 26
-28 8 -16 -16 -16 -70 0 -86 29 -29 76 1 103 65 17 40 61 71 78 54 6 -6 14
-35 17 -63 6 -56 15 -65 45 -42 17 12 20 28 22 97 1 45 2 85 3 90 0 4 5 7 11
7 7 0 10 -20 7 -54z m1089 -6 c-7 -54 -37 -173 -43 -167 -2 2 5 39 16 82 11
43 20 91 20 107 0 15 3 28 6 28 4 0 4 -23 1 -50z m-1437 -15 c0 -8 -7 -15 -15
-15 -8 0 -15 7 -15 15 0 8 7 15 15 15 8 0 15 -7 15 -15z m-196 -37 c43 -61
-14 -158 -65 -112 -21 19 -26 82 -9 115 14 26 55 24 74 -3z m114 -9 c2 -17 -6
-37 -23 -58 -23 -27 -24 -32 -10 -37 9 -4 24 1 35 11 11 10 23 16 26 12 10 -9
-35 -47 -56 -47 -28 0 -54 43 -45 77 16 69 67 97 73 42z m827 11 c7 -21 0 -40
-16 -40 -5 0 -9 9 -9 20 0 25 -9 25 -26 3 -44 -59 15 -124 66 -73 15 15 20 16
20 6 0 -17 -37 -46 -58 -46 -19 0 -62 46 -62 67 0 10 9 33 20 51 22 36 55 43
65 12z m133 -5 c22 -48 6 -109 -30 -121 -45 -14 -77 71 -48 127 16 29 64 25
78 -6z m117 -5 c5 -8 11 -7 21 1 27 22 44 3 44 -51 0 -47 10 -63 25 -40 8 13
25 13 25 0 0 -5 -9 -14 -21 -20 -31 -17 -49 4 -49 56 0 24 -5 44 -10 44 -14 0
-30 -44 -30 -81 0 -20 -4 -29 -12 -27 -8 3 -11 24 -10 59 l2 54 -20 -24 c-11
-13 -20 -35 -20 -50 0 -28 -15 -58 -22 -45 -8 16 4 124 13 124 5 0 9 -6 9 -12
0 -7 5 -5 11 5 11 19 34 23 44 7z m-1015 -50 c0 -54 1 -55 31 -40 21 12 26 1
7 -18 -17 -17 -45 -15 -52 4 -10 26 -7 104 4 104 6 0 10 -22 10 -50z m650 -49
c0 -14 -18 -23 -30 -16 -6 4 -8 11 -5 16 8 12 35 12 35 0z m-1144 -128 c-4 -4
-46 92 -45 104 0 4 11 -16 25 -46 13 -30 23 -56 20 -58z m1855 -15 c-53 -107
-143 -227 -223 -297 -60 -52 -59 -50 17 27 90 92 172 208 211 300 15 34 29 60
32 58 2 -3 -14 -42 -37 -88z m-1094 20 c-3 -8 -6 -5 -6 6 -1 11 2 17 5 13 3
-3 4 -12 1 -19z m400 0 c-3 -8 -6 -5 -6 6 -1 11 2 17 5 13 3 -3 4 -12 1 -19z
m20 0 c-3 -8 -6 -5 -6 6 -1 11 2 17 5 13 3 -3 4 -12 1 -19z m-1091 -148 c54
-82 179 -204 265 -261 36 -24 74 -50 85 -57 10 -7 1 -4 -21 7 -89 42 -220 156
-307 265 -38 48 -108 161 -108 174 0 4 10 -9 21 -28 12 -19 41 -64 65 -100z
m1447 -248 c-18 -16 -52 -38 -75 -50 -24 -13 -35 -17 -24 -10 10 7 41 30 70
50 60 44 74 48 29 10z m-137 -87 c-11 -8 -25 -15 -30 -15 -6 1 0 7 14 15 32
19 40 18 16 0z m-866 -25 c8 -5 11 -10 5 -10 -5 0 -17 5 -25 10 -8 5 -10 10
-5 10 6 0 17 -5 25 -10z m775 -15 c-27 -13 -57 -24 -65 -24 -8 0 10 11 40 24
71 30 90 30 25 0z m-725 -5 c8 -5 11 -10 5 -10 -5 0 -17 5 -25 10 -8 5 -10 10
-5 10 6 0 17 -5 25 -10z m65 -20 c13 -5 14 -9 5 -9 -8 0 -24 4 -35 9 -13 5
-14 9 -5 9 8 0 24 -4 35 -9z m572 -6 c-3 -3 -12 -4 -19 -1 -8 3 -5 6 6 6 11 1
17 -2 13 -5z m-520 -10 c-3 -3 -12 -4 -19 -1 -8 3 -5 6 6 6 11 1 17 -2 13 -5z
m480 0 c-3 -3 -12 -4 -19 -1 -8 3 -5 6 6 6 11 1 17 -2 13 -5z m-434 -11 c-7
-2 -19 -2 -25 0 -7 3 -2 5 12 5 14 0 19 -2 13 -5z m390 0 c-7 -2 -19 -2 -25 0
-7 3 -2 5 12 5 14 0 19 -2 13 -5z m-325 -10 c-10 -2 -26 -2 -35 0 -10 3 -2 5
17 5 19 0 27 -2 18 -5z m270 0 c-10 -2 -28 -2 -40 0 -13 2 -5 4 17 4 22 1 32
-1 23 -4z m-110 -10 c-21 -2 -57 -2 -80 0 -24 2 -7 4 37 4 44 0 63 -2 43 -4z"/>
<path d="M1123 1571 c-12 -15 -20 -17 -42 -8 -34 13 -81 2 -81 -19 0 -12 -4
-13 -21 -4 -30 17 -69 4 -69 -21 0 -18 -4 -20 -26 -15 -50 13 -97 -42 -69 -80
7 -10 25 -17 43 -17 36 0 86 29 76 45 -5 8 -1 9 12 3 30 -12 55 -8 80 16 13
12 24 18 24 11 0 -17 -51 -52 -77 -52 -13 0 -35 -7 -49 -17 -24 -15 -25 -20
-19 -77 3 -34 7 -73 8 -88 1 -17 7 -28 17 -29 10 0 11 -2 3 -6 -9 -3 -13 -29
-13 -80 l0 -75 43 6 c23 3 71 8 107 11 200 15 220 17 220 28 0 11 -9 55 -26
126 l-5 24 -127 -4 c-70 -3 -112 -3 -94 -1 25 2 32 8 33 25 1 17 2 18 6 5 4
-16 17 -18 95 -18 89 0 90 0 84 23 -3 12 -9 57 -12 99 -6 73 -8 77 -35 87 -43
15 -35 21 20 14 44 -5 50 -3 61 18 11 20 10 25 -10 41 -28 22 -59 23 -75 1
-11 -14 -13 -13 -18 9 -9 33 -43 43 -64 19z m-129 -333 c8 -6 8 -8 -1 -8 -6 0
-20 -3 -30 -6 -13 -4 -14 -3 -5 4 10 6 12 24 8 58 l-5 49 10 -45 c6 -25 16
-48 23 -52z m23 30 c-3 -7 -5 -2 -5 12 0 14 2 19 5 13 2 -7 2 -19 0 -25z m-11
-82 c-5 -25 -3 -35 9 -40 8 -3 15 -1 15 4 0 5 8 11 18 14 10 4 23 18 30 34
l12 27 -5 -27 c-3 -16 -1 -28 4 -28 5 0 11 -10 14 -21 4 -17 3 -19 -6 -10 -18
18 -27 13 -27 -14 0 -25 14 -34 23 -15 3 6 4 5 3 -2 -5 -23 -36 -22 -36 1 0
14 -5 19 -15 15 -8 -4 -22 -1 -29 5 -8 7 -16 8 -18 3 -1 -5 -13 -13 -25 -16
-19 -6 -23 -3 -23 13 0 22 17 37 28 26 4 -4 1 -10 -5 -12 -7 -3 -13 -9 -13
-15 0 -27 28 16 34 52 3 22 9 40 12 40 4 0 3 -15 0 -34z m177 6 c-2 -16 1 -20
14 -15 13 5 15 2 10 -13 -7 -18 -6 -18 9 1 11 14 18 16 21 7 3 -6 10 -9 16 -6
8 5 8 2 0 -7 -7 -7 -28 -14 -45 -16 -18 -1 -44 -4 -58 -5 -33 -4 -39 33 -10
62 25 25 46 21 43 -8z"/>
<path d="M1153 1179 c-5 -29 -7 -30 -15 -14 -8 20 -8 20 -5 0 1 -11 9 -20 16
-20 17 0 34 52 20 61 -5 3 -12 -9 -16 -27z"/>
<path d="M1081 914 c-12 -15 -21 -35 -21 -45 0 -16 4 -17 27 -8 40 15 53 29
53 55 0 33 -33 32 -59 -2z"/>
<path d="M894 884 c-16 -38 -11 -74 10 -74 21 0 35 24 41 68 5 37 3 42 -15 42
-15 0 -26 -11 -36 -36z"/>
<path d="M1216 898 c-10 -15 -16 -35 -14 -45 3 -15 6 -14 22 9 10 15 16 35 14
45 -3 15 -6 14 -22 -9z"/>
<path d="M482 900 c1 -13 9 -25 16 -28 17 -5 15 23 -4 39 -14 11 -15 10 -12
-11z"/>
<path d="M451 867 c-1 -51 16 -70 44 -47 20 17 19 27 -3 34 -10 4 -23 18 -29
34 -10 25 -11 24 -12 -21z"/>
<path d="M586 898 c-10 -15 -16 -35 -14 -45 3 -15 6 -14 22 9 10 15 16 35 14
45 -3 15 -6 14 -22 -9z"/>
<path d="M1550 901 c0 -20 17 -37 27 -28 7 8 -7 47 -18 47 -5 0 -9 -9 -9 -19z"/>
<path d="M1521 867 c-1 -54 21 -75 46 -41 12 17 11 20 -6 28 -11 5 -25 20 -30
35 -8 23 -10 21 -10 -22z"/>
</g>
</svg>
